<mxfile host="app.diagrams.net" agent="Mozilla/5.0 (Windows NT 10.0; Win64; x64) AppleWebKit/537.36 (KHTML, like Gecko) Chrome/139.0.0.0 Safari/537.36" version="28.1.0">
  <diagram id="w8xpiKH-cRVXiJjfFxkM" name="PÃ¡gina-4">
    <mxGraphModel dx="7774" dy="4736" grid="1" gridSize="10" guides="1" tooltips="1" connect="1" arrows="1" fold="1" page="1" pageScale="1" pageWidth="827" pageHeight="1169" math="0" shadow="0">
      <root>
        <mxCell id="0" />
        <mxCell id="1" parent="0" />
        <mxCell id="TpV7K2aXvLtTDawVXRad-1" value="" style="whiteSpace=wrap;html=1;aspect=fixed;rounded=0;align=center;verticalAlign=middle;fontFamily=Helvetica;fontSize=12;fontColor=default;fillColor=none;gradientColor=none;strokeColor=#000000;strokeWidth=10;" parent="1" vertex="1">
          <mxGeometry x="-100" y="-190" width="3320" height="3320" as="geometry" />
        </mxCell>
        <mxCell id="TpV7K2aXvLtTDawVXRad-2" value="" style="whiteSpace=wrap;html=1;aspect=fixed;rounded=0;align=center;verticalAlign=middle;fontFamily=Helvetica;fontSize=12;fontColor=default;fillColor=none;gradientColor=none;strokeColor=#0000FF;strokeWidth=10;" parent="1" vertex="1">
          <mxGeometry x="240" y="80" width="2780" height="2780" as="geometry" />
        </mxCell>
        <mxCell id="TpV7K2aXvLtTDawVXRad-3" value="" style="whiteSpace=wrap;html=1;aspect=fixed;rounded=0;align=center;verticalAlign=middle;fontFamily=Helvetica;fontSize=12;fontColor=default;fillColor=none;gradientColor=none;strokeColor=#6600CC;strokeWidth=10;" parent="1" vertex="1">
          <mxGeometry x="400" y="240" width="2300" height="2300" as="geometry" />
        </mxCell>
        <mxCell id="TpV7K2aXvLtTDawVXRad-4" value="" style="whiteSpace=wrap;html=1;aspect=fixed;rounded=0;align=center;verticalAlign=middle;fontFamily=Helvetica;fontSize=12;fontColor=default;fillColor=none;gradientColor=none;strokeColor=#FFB366;strokeWidth=10;" parent="1" vertex="1">
          <mxGeometry x="590" y="410" width="1880" height="1880" as="geometry" />
        </mxCell>
        <mxCell id="TpV7K2aXvLtTDawVXRad-6" value="" style="rounded=0;whiteSpace=wrap;html=1;align=center;verticalAlign=middle;fontFamily=Helvetica;fontSize=12;fontColor=default;fillColor=none;gradientColor=none;strokeWidth=10;" parent="1" vertex="1">
          <mxGeometry x="1580" y="640" width="660" height="1360" as="geometry" />
        </mxCell>
        <mxCell id="TpV7K2aXvLtTDawVXRad-8" value="" style="rounded=0;whiteSpace=wrap;html=1;align=center;verticalAlign=middle;fontFamily=Helvetica;fontSize=12;fontColor=default;fillColor=none;gradientColor=none;strokeWidth=10;" parent="1" vertex="1">
          <mxGeometry x="800" y="640" width="640" height="1360" as="geometry" />
        </mxCell>
        <mxCell id="TpV7K2aXvLtTDawVXRad-9" value="" style="rounded=0;whiteSpace=wrap;html=1;align=center;verticalAlign=middle;fontFamily=Helvetica;fontSize=12;fillColor=#d5e8d4;strokeColor=#82b366;" parent="1" vertex="1">
          <mxGeometry x="870" y="720" width="500" height="560" as="geometry" />
        </mxCell>
        <mxCell id="TpV7K2aXvLtTDawVXRad-11" value="" style="rounded=0;whiteSpace=wrap;html=1;align=center;verticalAlign=middle;fontFamily=Helvetica;fontSize=12;fillColor=#dae8fc;strokeColor=#6c8ebf;" parent="1" vertex="1">
          <mxGeometry x="870" y="1360" width="500" height="550" as="geometry" />
        </mxCell>
        <mxCell id="TpV7K2aXvLtTDawVXRad-12" value="" style="rounded=0;whiteSpace=wrap;html=1;align=center;verticalAlign=middle;fontFamily=Helvetica;fontSize=12;fillColor=#d5e8d4;strokeColor=#82b366;" parent="1" vertex="1">
          <mxGeometry x="1660" y="720" width="500" height="560" as="geometry" />
        </mxCell>
        <mxCell id="TpV7K2aXvLtTDawVXRad-13" value="" style="rounded=0;whiteSpace=wrap;html=1;align=center;verticalAlign=middle;fontFamily=Helvetica;fontSize=12;fillColor=#dae8fc;strokeColor=#6c8ebf;" parent="1" vertex="1">
          <mxGeometry x="1660" y="1360" width="500" height="550" as="geometry" />
        </mxCell>
        <mxCell id="TpV7K2aXvLtTDawVXRad-14" value="" style="shape=image;imageAspect=0;aspect=fixed;verticalLabelPosition=bottom;verticalAlign=top;rounded=0;align=center;fontFamily=Helvetica;fontSize=12;fontColor=default;fillColor=none;gradientColor=none;image=data:image/png,iVBORw0KGgoAAAANSUhEUgAAAgAAAAIACAMAAADDpiTIAAACZFBMVEVMaXEkLDwkLjwkLjwkLj4kLjwkKjokLDwgMEAgMDgkLjwiLj4iLDwkLj4kLj4kLjwkLj4kLjwkLj4kLjwkLDwkLj4kLjwkLjwkLj4kLjz/mQD/mQAiLj7/mQD/mQD/mQD/mQD/mQD/mQD/mQD/mQD/mQD/mQD/mQD/mQD/mQD/mQD/mQD/mQD/mQD/mQAkLDz/lQD/mQD/mQD/mQD/mQD/nwD/jwD/mQD/mQD/mQD/mQD/mQD/mQD/mQD/mQD/mQD/nwD/mQD/mQD/mQD/mQD/mQD/mwD/mQD/mQD/nQD/mQD/kwD/mwD/mQD/mQD/mQD/mQD/mQD/mQD/nQD/mQD/owD/mQD/mQD/mQD/mQD/nQD/mQD/mQD/mQD/mQD/mwD/mQD/mwD/mQD/mQD/lwD/lwD/mQD/mQD/mQD/mQD/lwD/mQD/lwD/lQD/mQD/mwD/mQD/mwD/mwD/gQD/mQD/mQD/mwD/mQD/mQD/mQD/mQD/mQD/mwD/mQD/qwD/mQD/mwD/mQD/lwD/nQD/mQD/mwD/mQD/mwD/mQD/mQD/mQD/lQD/mwD/lwD/mQD/mQD/mwD/nQD/lwD/mwD/mQD/mQD/mQD/mQD/lwD/lwD/mQD/mQD/mQBMaXH/mQD/mQD/mwD/mwD/mwD/mQD/mQD/mQD/lwD/lwD/mQD/mQD/lwD/mwD/mQD/mQD/mwD/nwD/mQD/mwD/mQD/mQD/mQD/mQD/lwD/mQD/mQD/mwD/mQD/mQD/mwD/mQD/lwD/mwD/mQD/lwD/gQD/mwD/lQD/mQD/mQD/kwD/qwD/mQAkLj7/mQCWxCNpAAAAynRSTlMAYHCxgcEwQBAgoZFQ8e/R3+HPvz5+r59uj/PxXuf349d0xaX16+9ekWzlgb+PaE4MdpW1kwgIyaeFy4NKVMHdFL0keoeZKrNOEokOOsNuz/lkixpyCqGx0ygkWHxq31KdOH4+MGR4ChSXQO0sEnBir1w+AuGfKNssudX9RNkCzUg8Oh7RFsccrS4OGEZaqzIyDGAuBDRAqRAWUCIeAGCNPDAgt1JCIFbpuyJMGPs0EERORkw4SDZmVkKbKiajJlBiGgRYHFo2BgZcHO3E+QAAAAlwSFlzAAALEwAACxMBAJqcGAAAHONJREFUeNrtnfuTFOXVx3e6uqa7q6e6prp3enZhF3a57rosyKKAIAhkRVBBAQ0qFxERw0WKECAqFdB4vxvvt9LyDpZRKuSiJiQkleR935l/6i0uCrvb3c/znOc8Mz27388vlstM9zPnnOec85zn1tYGAAAAAAAAAAAAAAAAAAAAAAAAAAAAAAAAAAAAAAAAAAAAAAAAAAAAAAAAAAAAAAAAAAAAAAAAAAAAAAAAAAAAAAAAAAAAAAAAAAAAAAAAAAAAAAAAAAAAAAAAAAAAAAAAAAAAAAAAAAAAAAAAAAAAAAAAAAAAAAAAAAAAAAAAAAAA0Hi89vN0VDou/NfLXeu6KpU4imojiKKoUulqL0J7GrjtHZ2jBXuBMKpWciDbYlclDmsCwriSO5ttiV7fFZdlZOs2yzYrUVCTplztcqFTeeZVy9KyDapdje5g7Z1hTZ2wE45AUvuBqmzL1XkN80wdcY1M2KHkB9zEflCOOlxtEUdJz9X3UsXOxIjdoSDfSkAUbtwAR1DsLNc0iR3516W+LChp/QpDz21zo7QH27JNq+oJt8to39fX/sXxgawJWBkP0dBUMauLFXT0nxEY5VoWaQs3MBVn3a6oxkYkN4Cxs4Ie3VtnmnGgEQX8jOc6MgGPR7qdBtJtrxrUWKnIvDVTIBb1txSyW+bThVTTMoAKm4iDDmb1O9UaO2VHzwPUytRfI/BkAVlMto4BeCGndGNOJ+BENSN0Ct9cyvx+0UA/1couMnuw4LsdzB42ZLMAz5D6ZczUNeGrC6JmUWNAprmG2T80ZhculwUUgpo5QlHCGhqIAUJZhwZSwFq1ce5fO5eRHYhxZCtFDZnWaOMd8VCW2HdCalxxzHQyjuGgU6s11QKy318wkgJIjdhU41WgE5OIWAwGEJs2AFGoCshuVUPcNn9uUW28/mniGUWt1mQLqLIP2CRGtFEb+4MLjdc/8WeMrEw2wABqMb2/FrkjtUrZVim3cEll6aYbgNMIA8gM5S53lHNlWuRw5xapRu4aHGS1jAEEHrVsFzMP1nXSpwLJxsMaDCC7pRZzEuBrRyVKCuDRE5KJYABZQcBjTgKkulzAnAKEOu5oIhhA1hRsyOur5RqkblhFQjNdheUVUeTbtm05jmPZtm37URTlxQCCqGrbjnNZZo7j2HasFN1sos+ODZm0umFZhAjgy/WO2HaSH+A5lh2FzTSAcmw56Z23WJBe2ZrhAoqsvto2VUOJ1SctZAbZZV/sjEp+2AwDKFdLEjXzol/WdQEBp6+WnNpUn2cK1KdlxG2pyo5H3VKCnE0aQGzJzzQ4sV7axbosyNRESlHdSoXRKFZrhOcHjTGAsq9aJ5FZUlCgjdxjRj3pzDNZ6sYtGAIGhGpUKWaeD3ZIMSmpZQE9ZXUZkwDp2W1V4cXKCYVgVjKizUl7dllqBppmAEHVoT7JDelON+ZLAqRnN1UXhQTKSwF8UzN5pUhvXUuqlcZ6FlUl97kCXxIgX3l3NV2l0EmVzQ3hPSsuhzbLkrCfgnfZ0n5eTE28PbYkwJPWv6L/tJVbmJmNlHOzj/biYiUN168QBTxaMZBtwkZnUUiknE/6fNZnFM+2La5jCDxq9U1rvT1x7kXNCasHk7LZGm4+sYlTcEWurqqytZErBYjVTaY0Xg1AoADa9xS6i6ugfyXPYis7Noe1DNkyFIgi93m6qtLsq4pniZRTG8vMELC1XYBF05x8V022I1t7eOGqFxR8xipkK2ERix8BS1dNHk2kbH0MeDyLpe4znHFsAB6x+hazJAEpIcTXrTH66pXKiCn9bDkiWjQvcCQBTor9lHRrjKF6QleeqAZg0er6LkcSYKdEEFczF3MJBe7aRDWAInH8GzEkAVHaS0O90ViJYNMT1gCo6ZzFkASkFup8vUUhPmG2euIaQEwzAE9fYsXUzLOkNxwLCQMbztVI46ccHBMrCHJJgJUapD2tRSEeJajVJugwMDtgRsShlq3he0rp1iW5oqJA8U2cq5HGTxYYEr8nlwQE6XN1VZ1FIVWKSwsn5lyATvoTaC7f8TKEXdCZlStTirrRxE0CqCWQqub8aSEjS/M0QotHMkze/U7jphZITR58sqcuZFmlVGgpkEKTVZuwaSDVAFxi8pDtebzMwalmCmCplqV/+j3j+W6NKnVAH2slAW5mvmXRe2KZFsu59yaOj0KAS51GECcBpcxoWyQnAUWiXwp5N6aMEwNwqNmWWF5+tpMOqEmARSxPiLYpd8IAVDqNOAkIs+dqYuqikJi4aUm4SzF2YQBcwSM1BQhEHVm8KCSg1nOEK5SDEgxAvtOIhOUIBtxF4qKQIjksSRxVEXkwANlO45PeaomycmFJxiL/GKltalUPBiA3ghQlAZHofRGtLB+rLwWQGdaOZxPQMIASPQkQ1h1sWlk+oA/lZY9gi+fBAMTiFiQBjnCU55AWhTg6pQnpq1jKFQ8GIPKaPiFU22IfUSX/GLEkVE5hDDs8GEDmxEtIsBxH3B9DaieWmdFTu40hGic2oGMALjUJCMSd1KbkFnr7uzzVo8Jz6AeK7R2VzmjEPfJhFEWVSkd7O78BZBUDC8qj9VAmwywRnbhUHY9wI1O5s5gX3bd3VEVpTBRXuto5DcCiTaAVJNIGl5Bb2LpL1UlX8pU7mz8uKKpcIV+OKvOKPAbg0VbSVWU6N+G81YiyFEArCPxYZKg20waKVcol4lFlnqdtAMTZ97KMl/aVs3lXf1mfxo1BcVdTpou8Do0r5IO40q5nAD4lCfCkEvyScptKWkuUpKcEsmyg0UmhZ/SKCwkDcChJQEkqurvKs/o+x3oOzZv5GjowcExfIyixBIsy/erLeQzllaEhbSnAKLvTvjaoUTZg8BZpBQOoEuJuKPfxquKkjsuztcNluDgq6jKv/0qtlgcDKKknAa6kkgqKvbnEtKLP5ehZQadZN+CUa/kwAFc9CXAkP+0pjuh8jYkg6dRWgarBElFnrZYTA8hImspKiXZBdrQYKw9J1S8dY7o/NjK0o8QNa/kxAEs5CYhkPXtVya48+lKAhNoKk4hjE4HACWo5MgBPOQmQ7qWWkl0V2CIAYxio1Srs5aFCrZYnA8gYfFUVUoBYes4oza6qehNBY9vJ5ATKTsvqX84AbMUkwJJP7QIVj17WWQqQLGomV9vJ6QQ6ankzgKJiEhDLD+5iBbvytJYCpCRbNo8JhHyZgF/LnQFkTAgVpLt1oJJgumqeUaf/MZlA4LSg/5c2gPTgKx/YIxXnUlJqheZlTW6BJRfgOXHaqeXRANIrcIG0DdsKA4bkwl6guRQgc749yIcFFINcGkDGSjzpwb2jUjIIlTIRlvhbiHNgASr1nzC6cLX5Zd/hXLhD3B+5XJDJANKFY8lmDGojDJV6VMgUfd1CHDSkO+kngKHtZOY9RceuytmBo5uZxJLJeqQW8xwFI+Q82qGkFQuCYiMSgKggmfS6ji00aUkDcBWSgJLaKg/pRSEBw1IAqTDs06fh9JyRK/Ni1a2LXsnnuCtDYSWGr1asjSQdRpFlKYCk0CzquEDLG9n86helcNIGYMknAaHaUF02CbAYJ4JkbICYFGqkAa4w+lCLDQztLUonAa6ib3QkHUvMOhEkpRBKQhAadADkM2w4DFZ6Kr6k6BpdScfCtxRAKSlUTggKxhwA3dVxGIAvmwTYqt00lHIsTmMjwJXOz1ZKCALXkAPQ+KEcBuDIJgGRarXel+rYttkKrCAhsBX8ALUuWTamfxYDSB+FxRIvK6vXmT0Zu9KcCDJSLCaOSgQ1AK2zbFkMoCoXhB1l83Wlejb7UgBzc0Y0nyTYAKRT7PBYDKAg1zZbXSahhM04zYwAl1shtZycZJOCFNDWajaLAbhyQS9Wn66RWRlqG50IYjYBSptKZjJLRgNIH4jHwlShTPEtrkwlMmxrNBKryChpoG/OAXAZQHoxUFgwiikhqiTjfqyGG0CbG5uIAdn5hZsHA/BkHmJR1FQW1o5KOYkAkiU7glXxZxVy4cXhMFJbFM+LlAQ4lHCQTbruS7Ruz2HtpNqZrs3U1NQwFQk6c0CTp4TtNeuWhyp3EmCzZ5UGDKAodnkeyYMVRW1zG7QUgCtkq1ftfAOlJXH6ruqsysKnFGgdIhBEllK+IoDw5PFI+XmRwRQg01odFsdnZxuyQzPRSNg/mnjTU2YQUJ+hLJsbBDJem1wSWnxIS4otQWQpN3opgK4LYNWR7ljX48tXRT/YJTpEQRLgNWUpgEZgVc9NTC42LvA9OxY8pkT1YEGm5ReaPhGkVBcjqMw1aQA+3wizIIhSNrX9UaaCq3mYCDLoWEVlAE0DCPnyC0+QBETUgGhnuvhyc5cCmE6tDBuAxznLEGYnAeT5msyVoV4eI0B24p4nAyhwGoCV2UaHXq3L8vGF/EwEyQ7d82QAEedGhmKmISmvBxW1spqZAnj5NYAcTQUIlppFTH4vSh8kSEVqO6PSF+RlKUCzDECrEFTlNQA/a8Y6oOvJSe/kxXxGAFYDaON005ITOLRuVMrYn1PUaX16qc/K20SQWGdlXgOIDJkpyVaDdCu1dAJYmGo9cd4mgsSjq4jXAGr0VopPHHKZQkqY9k+eTmwJ003Ob7IBlFiDdmhmTbjEiTMOl0m5yQliWU+ebmoQa3YEqLKm7ZGR2SCZE2dUn51atS55WjO2bpp9WjmcCGrLvlSXMHC3WTM1yREAzZOm2apf0OsMYYozjXO3FEAYXAnGafHvNJDTv7pxpTU19PU8tZ+STuVvKYCwEEyoUQvKNVVj+lc3rtTsN9TrDCldyslnBLC5K3f8m41kbxtTbq3SbvlY17CiXE4EFdkddsS810T+xEHlRysdZmzxOFV9s/VixuvAs4/zIqVsPu8PVrlxwmO1fvpgTemCROWlAD+qLGY41FnQu0hzNyXBD1Y7glDpvjHlqoWCcamEapVjspVLbVc8vFzxjOqfuJM34LMAR+1SNOWaatWMojwzkSUpadO69E/kXYklSqFUZS3AVb5rtsDsrajexWDYGpNjBdQb39xO9rbJSlXqlECvU/1oO2V/Kv9opYArfzKjepqV4BTLFYINdAnFS65QSSTBwptp5jXmdEv5t3BWw7QmW5KjYhB3qBiBWxEriX6Wh0wOFGTFrnmd1EOOqwaaSvAt8sOLIpMBXAwGcjfCu12xGdv86QVSvjvoTPzx7R1aR92rHkBtqKcaPIgtOy8Oos6u9izdtFciY02TnBC64h3VjvbLGmtvr3SKGhdazC5AtspUMhNafG4D+NFhRZVKR3v7ZVMotrfPq1RVbuDQqTK4an04kL4apOwKEwzPjK26Zh7rGDIAffT28VpmGnV+/FjgdQGS0Vo1WZe8MYsyEdQYA4ja9AhN6b+N2wWUzbhqMzlrwwwg0N2r5hjTP7cLkJsQKplRUymvBqC/Ss02pX+hd1F0XnLFQNfM76dINm6A/jk2K0em9C/yLqpxVSb/LJtxgXE+upYR/bd5vBdHXnmlccSavsj0KEKsNiboQmvon/nq0BFnzHuszS+YEUloIrC0CY/gyI/+labaFHtglXN2RUaghGkxieSSONSqGlU/293hnM7Kki80Ea6jiAykAFLmb+UiuJIXazTMAsKifIoVEbyqZSIFkHEsXh6C66i0lPmsGoehqb68gw0sM0GVtHJfmATQTwXwQkPdn3+furaxlpNDUuJi1ojYpYTjAFK38A1FAHNjwdDEJkVXq24R2K60ZdHN1zEQAcQzzXrVVq/aAt3/UoilO4Gs+4VLTN1fIg0sGnEsusfmMpuAbe6kOo9YFBSo1OIz3+y82jfyVIZzgTyrzKX+qtljqhyCCYi3PVR5ur8oVaFv3SrJVrY0JFtlSLMD2/w5lQW1vLVsy2jU5oterp8iyFinLlaMU38fn8jVL4UeZYoNOqbWkQ9ZcUlFwIHPI0zPGYt2Wuw6lj2GAne2XbSpU2+h1cAjCt2CxIigXC0p6dNp8hmLucGxlYsDkd1w4bklP8NWy7EFdWoZgVWVtYLQLzWxmfboVaBRbJccKJBHvAU7zjSDyLdyIusLYRYaMzP2ds5nH3F0nvD8uusoimLbdhwXsgEAAAAAAAAAAAAAAAAAAAAAAAAAAAAAAAAAAAAAAAAAAAAAAACAFmbtw9+f+fK1bXdsHRj42foHXnrvD7/9eNWm5yGXcc8T388dPjvn1zPqyXQv37F72XMQ03jkr699dFNPXY4bFtz8IiQ2fnhmzfCpSXVFJr38HULCeOCV63rqVFbe8TUE2Mocf3zwcF2LKX0wgZblm76TdX0mfwdJtiKbftZTZ+IcpNlyzF5Z52PmgxBoS/E//VPrrJz56dGr5/eeuRoSzjXXrj9ZZ2bw0qMf2nz+/2bs+QJSzq/6D8yss7P80sMX/zg02HgLJJ1P/nG4boCrLj78zst/2bcess4hT3xaN8PFxx+98k+Ht0DeeWN33RQrLjz/lpF/XPJbiDxP3PobY/qvf3DxFXNG/XnzKog9N/yybpCjF9+xf8w/DP0Cks8Hy0zqv77/0lteGlso/tm1EH4OeGqGUQN4/8f3bEhYQ9IP8TefAaP6r2/66UUvJqwr2P5LKKDZvJ2uvKknFuxYemDLW9/89YOHrvjG8088t/fDpdOflloockXd5/XuhH/vuRcqaC7rR2lkVs+psxt7X3pr9UPCr757aPcjM6TqABd55q6kT5y4HkpoKkcuztsteravd8uhe5QTs9ODWRMIh0d89pbkmcZ190MLzWThK3v360zbfjuUbgBLEq1tDAt2QQ2tzJepBnDT6I9uTfngy3+HGFuYl9IM4Br5stPihyHH1mVOilYPjP3ooVlpJrDgPgiyVVmTotP3Ej57d/rE8/LHIMrW5NopyRpNdOsv3JaeNd625VeQZiuyKFGdx95I/PCD07M2l/0F0mxBdiQq8660j/ffnmEC3b2/g0BbjY2Jqpye+vn7urPqh7OWroVIW4vk8X1v+hdWrMveWDZ0D4TaSsxPVOPnGd84/lH2LMKxBZ9DrK3DUtFcYALLRPOJT2K2uGUYTFLgo4Iv/f0G0Wxy99Z3INuWYHGS+naIvnXLTcIFBTP2IBloBRJTugeoucOoJcSnId+ms2xxz4zulYOr0/59e5LmVks8+K19Eibw5AbsK20mfx/6KV3rW5j4iWsTA7jUw59ZLrO0bMaRQ9BDkzg3wr0vSlw7sitJaT+Xe/6vtv5ean1pz/x3oYyG89VHo/cM9yV9bHaSxqQHcX+W3Zh6E5aQNpYtSYv4fiE7Clwh/Z6rz8ouMz+58W6opUF8snSm9ME/SXH8hMrLvpQ/jXDaOWSE5lk4e84xwakfV4bxpNXhO5Ve+MXT8rtNZuzAwNAst96Y0SHHrvNrW521LVAWpT1KUzfuh5oM8cL87GPiEnb0/SXhY79RfvHjaoeUPNn7ApTFzhv3LhAMyo49NfZbLyd8blj95d++rLjz8NSHSAdY2TskrsslLfJI+tablAZ8qLxX+ewZqI2J+6XOh+1+R64MdANx6KF+TuXMPVhOrs/j11wlNw5P6ti9CR/cSm3J7H3KJlCf2ofthVpJf5/sAaEn/pn0/UcSPkk/EvLds3UCM2/ERRVE7X8kfzzsdcmPSAjc63SadIZ2YO3kI2ugTlXtD3bLC/hwip/9POGzc7Wa9buhY7QDSSa9/d2d0KosfxxU6mnT01b49SXU6nSPCf8j/cj6zbNxAJlU31fzs7PSb39IqN/s0W+gzuFFiwYwMMhi4ZlrVKPsyn+mPu2VhI9z3B+3epHO6VT7FsMRJPNEP+Fc4ANqXXUaS0uPr5+kYwL1Y4sG/outpiN44/OPKLG152jWQxOOfprN1N5nXq5rsm/xS3AEl9j04UFaj7ou87HvJ1SL+Bp9iOH+oiXDj034KYOr1/RRJbnuaPajE8qA8zmb3j+Z48DKRRPZCB4fmEYW3KwNoqePXcgxifdWkLU3HuMwgfrvnx5+ceIZwd39m3V60FnhcZFfjf3Szdw/4rmn60ycN4IJUyn631t7n+3WEtd2iSmWnWO+dfsK/t8ym/M6q6c3/uOh8a78FZ9tXKctqAGZN/167E0AJn7QnRt5D7HuObJh9XhV/nPbzm5nENE6qfXXH4/NAAwNu1axX2u076be8XZ3zS1/Gjg1iUU43ZK7OoY1FwOr8JmJq22mDa8ZJzvQ//ba0KNcUpkhfZvHGF/TbTLH2nayboLDmwfubelN6Juu372Z89bHPdJp3J8pW8I1WLh7ct0QM6b1bbu19e46fvj/bj41i1cSBxU2Xw1KHwzHxUN9dZPc8OzOMy1yv+3aQ+t3LOKXwG17VRoxxiU3IKv695FjdbNMWjJ955ZXFuZW9U+91T80x0w0nDr7uEpLzowpHDXG7X1abwRXrdxz4E/5yg3eP73+xuWzzFn+VsULQ0ZfODR5RYMEcWhJvWH0HBzedv3q5vqDVac3DJxdN9XsD52883nVeCyxa6ylxoSZVYMlm/t6v/vzCw1W/ANLpy+/qhG/b9ZW9QN6D4yusTZUOHNvqDeF35zasbN/y+lXvzB3ovHXr59X/LSrGvejZm6lDN9H1R1mNDpe3ruk3ly6H53z7A/DvefWPP76E9/q/ZZ3Ptn11nf9A3ueXd6zr+G/Y2YvqXrzx4aWABLZu6CeHyYfvmvdgul7lu7e9p8zhx6/781dDx9d9dUHm9596Pk7R+ZW1679992v3v/YstnbegcGjxycc9vhyc1s98n5xATnh5HPWdCU9OivZ+tAy4v1U+9wfnDkrMPMZq292zQ4GWokD3E+pAv+tZGP+r55g6Sre6dClaQZ3zXHNcQ+cp3ZgaaOk9+Y/SjUqcixg29qyfyeEU9b3PQi2ZpT0KkKN+qO2UbMA51oywGrkAxID1iu06/ZXjla7X4mH6XyhQ/cBeVKTHn2MqyOvvK22Fk5Wl5339kp0HAWXMduX3E26IxvcjVj9ov526HmNJbMZSpgf3L5mbfvbcsbZz6FqpMi/xDfBd1XbAn+LI9rJj4ZnAWFj2TlFk4BX56Jy+0J7lvgBi4zdekTrMK9vB0gz+c0ig69nSjM+uHQcWbRzr306Cl5v9zxvhsnfG1gwTIDcr10Q8ikVthZ891EDgWLtpm5hfmDC09/9GhbS7BpgoaC7Uv/Zm6gtXLOwT+0tQ73DU20UHB4cLxtfNSdMPzD0OEJo/1Hl74CjSewa+eJiVDt270Kqk7l622f3j6Olf/7OeufgZIF3PnlkfGZEEw+uGEt1CvF8UODN4wv5R9bspS92jPOeX/D9O5xov3un/8HXZ/E3dvePtniyr995fyPoUgdXl9/sFVnDiefGnjsQWhQn1/t6l3QYnnhsZ4dD+zHUdic/PeOt1ukUjTrkZ0vPg+FmeCFzzauy/WawilP9722Gnoyyr/e7J+exzHilEVD517HSK9BrFgzPGdSfjL9JXs2fAzdNzw1/OpM745p+5rb7e9avPPeo/+CMprIU3vn9j3S+N2nU26bvvW9v6Hb54Wrv5k9fPDJRhQMJp84ONh/PSb08snCu0+f2/nDIz0G8oMpPZ8O9d77yjsQckuw9rnHtg2fnXPXVdqjxu1zpg/3r3n1Xci0Vdm0//73zvVet+ftUyckD/s5+esTKw/+/JqB/vdefQryG29B4tunPli1/9Vb9/5pzZe/3NB/x+6BrfPv6J97bvaWZWuuP33/rvdXQEYAAAAAAAAAAAAAAAAAAAAAAAAAAAAAAAAAAAAAAAAAAAAAAAAAAAAAAAAAAAAAAAAAAAAAAAAAAAAAAAAAAAAAAAAAAAAAAAAAAAAAAAAAAAAAAAAAAAAAAAAAAAAAAAAAAAAAAAAAAAAAAAAAAAAAAAAAAAAAAAAAAAAAAAAAAEDr8v8/YUBKj/4R+AAAAABJRU5ErkJggg==;" parent="1" vertex="1">
          <mxGeometry x="-70" y="-180" width="150" height="150" as="geometry" />
        </mxCell>
        <mxCell id="TpV7K2aXvLtTDawVXRad-15" value="&lt;font style=&quot;font-size: 44px;&quot;&gt;&lt;b&gt;AWS Cloud&lt;/b&gt;&lt;/font&gt;" style="text;html=1;align=center;verticalAlign=middle;whiteSpace=wrap;rounded=0;fontFamily=Helvetica;fontSize=12;fontColor=default;" parent="1" vertex="1">
          <mxGeometry x="70" y="-160" width="370" height="80" as="geometry" />
        </mxCell>
        <mxCell id="TpV7K2aXvLtTDawVXRad-19" value="&lt;font style=&quot;font-size: 44px;&quot;&gt;&lt;b&gt;AWS Region&lt;/b&gt;&lt;/font&gt;" style="text;html=1;align=center;verticalAlign=middle;whiteSpace=wrap;rounded=0;fontFamily=Helvetica;fontSize=12;fontColor=default;" parent="1" vertex="1">
          <mxGeometry x="370" y="120" width="370" height="80" as="geometry" />
        </mxCell>
        <mxCell id="TpV7K2aXvLtTDawVXRad-20" value="" style="sketch=0;outlineConnect=0;fontColor=#ffffff;fillColor=#6a00ff;strokeColor=#3700CC;dashed=0;verticalLabelPosition=bottom;verticalAlign=top;align=center;html=1;fontSize=12;fontStyle=0;aspect=fixed;pointerEvents=1;shape=mxgraph.aws4.internet_alt1;rounded=0;fontFamily=Helvetica;" parent="1" vertex="1">
          <mxGeometry x="420" y="260" width="162.51" height="100" as="geometry" />
        </mxCell>
        <mxCell id="TpV7K2aXvLtTDawVXRad-21" value="&lt;span style=&quot;font-size: 44px;&quot;&gt;&lt;b&gt;Amazon VPC&lt;/b&gt;&lt;/span&gt;" style="text;html=1;align=center;verticalAlign=middle;whiteSpace=wrap;rounded=0;fontFamily=Helvetica;fontSize=12;fontColor=default;" parent="1" vertex="1">
          <mxGeometry x="580" y="280" width="370" height="80" as="geometry" />
        </mxCell>
        <mxCell id="TpV7K2aXvLtTDawVXRad-23" value="" style="sketch=0;outlineConnect=0;fontColor=#ffffff;fillColor=#0050ef;strokeColor=#001DBC;dashed=0;verticalLabelPosition=bottom;verticalAlign=top;align=center;html=1;fontSize=12;fontStyle=0;aspect=fixed;shape=mxgraph.aws4.location_service_map;rounded=0;fontFamily=Helvetica;" parent="1" vertex="1">
          <mxGeometry x="260" y="110" width="110" height="110" as="geometry" />
        </mxCell>
        <mxCell id="TpV7K2aXvLtTDawVXRad-25" value="" style="sketch=0;outlineConnect=0;fontColor=#232F3E;gradientColor=none;fillColor=#ED7100;strokeColor=none;dashed=0;verticalLabelPosition=bottom;verticalAlign=top;align=center;html=1;fontSize=12;fontStyle=0;aspect=fixed;pointerEvents=1;shape=mxgraph.aws4.eks_on_outposts;rounded=0;fontFamily=Helvetica;" parent="1" vertex="1">
          <mxGeometry x="620" y="420" width="140" height="140" as="geometry" />
        </mxCell>
        <mxCell id="TpV7K2aXvLtTDawVXRad-26" value="&lt;span style=&quot;font-size: 44px;&quot;&gt;&lt;b&gt;EKS cluster&lt;/b&gt;&lt;/span&gt;" style="text;html=1;align=center;verticalAlign=middle;whiteSpace=wrap;rounded=0;fontFamily=Helvetica;fontSize=12;fontColor=default;" parent="1" vertex="1">
          <mxGeometry x="750" y="460" width="370" height="80" as="geometry" />
        </mxCell>
        <mxCell id="TpV7K2aXvLtTDawVXRad-28" value="&lt;span style=&quot;font-size: 44px;&quot;&gt;&lt;b&gt;Users&lt;/b&gt;&lt;/span&gt;" style="text;html=1;align=center;verticalAlign=middle;whiteSpace=wrap;rounded=0;fontFamily=Helvetica;fontSize=12;fontColor=default;" parent="1" vertex="1">
          <mxGeometry x="-540" y="1530" width="370" height="80" as="geometry" />
        </mxCell>
        <mxCell id="TpV7K2aXvLtTDawVXRad-29" value="" style="sketch=0;points=[[0,0,0],[0.25,0,0],[0.5,0,0],[0.75,0,0],[1,0,0],[0,1,0],[0.25,1,0],[0.5,1,0],[0.75,1,0],[1,1,0],[0,0.25,0],[0,0.5,0],[0,0.75,0],[1,0.25,0],[1,0.5,0],[1,0.75,0]];outlineConnect=0;fontColor=#232F3E;fillColor=#8C4FFF;strokeColor=#ffffff;dashed=0;verticalLabelPosition=bottom;verticalAlign=top;align=center;html=1;fontSize=12;fontStyle=0;aspect=fixed;shape=mxgraph.aws4.resourceIcon;resIcon=mxgraph.aws4.route_53;rounded=0;fontFamily=Helvetica;" parent="1" vertex="1">
          <mxGeometry x="10" y="1360" width="150" height="150" as="geometry" />
        </mxCell>
        <mxCell id="TpV7K2aXvLtTDawVXRad-32" value="" style="endArrow=classic;startArrow=classic;html=1;rounded=1;fontFamily=Helvetica;fontSize=12;fontColor=default;exitX=0.962;exitY=0.528;exitDx=0;exitDy=0;exitPerimeter=0;strokeWidth=10;" parent="1" target="TpV7K2aXvLtTDawVXRad-29" edge="1">
          <mxGeometry width="50" height="50" relative="1" as="geometry">
            <mxPoint x="-267.9599093504544" y="1438.0294400000002" as="sourcePoint" />
            <mxPoint x="-80" y="1465" as="targetPoint" />
            <Array as="points" />
          </mxGeometry>
        </mxCell>
        <mxCell id="TpV7K2aXvLtTDawVXRad-33" value="&lt;span style=&quot;font-size: 44px;&quot;&gt;&lt;b&gt;Route 53&lt;/b&gt;&lt;/span&gt;" style="text;html=1;align=center;verticalAlign=middle;whiteSpace=wrap;rounded=0;fontFamily=Helvetica;fontSize=12;fontColor=default;" parent="1" vertex="1">
          <mxGeometry x="-89.99999999999994" y="1530" width="370" height="80" as="geometry" />
        </mxCell>
        <mxCell id="TpV7K2aXvLtTDawVXRad-34" value="" style="sketch=0;outlineConnect=0;fontColor=#232F3E;gradientColor=none;fillColor=#232F3D;strokeColor=none;dashed=0;verticalLabelPosition=bottom;verticalAlign=top;align=center;html=1;fontSize=12;fontStyle=0;aspect=fixed;pointerEvents=1;shape=mxgraph.aws4.users;rounded=0;fontFamily=Helvetica;" parent="1" vertex="1">
          <mxGeometry x="-432.1" y="1360" width="150" height="150" as="geometry" />
        </mxCell>
        <mxCell id="TpV7K2aXvLtTDawVXRad-36" value="" style="endArrow=classic;startArrow=classic;html=1;rounded=1;fontFamily=Helvetica;fontSize=12;fontColor=default;strokeWidth=10;exitX=1;exitY=0.75;exitDx=0;exitDy=0;exitPerimeter=0;" parent="1" source="TpV7K2aXvLtTDawVXRad-29" target="TpV7K2aXvLtTDawVXRad-35" edge="1">
          <mxGeometry width="50" height="50" relative="1" as="geometry">
            <mxPoint x="680" y="2030" as="sourcePoint" />
            <mxPoint x="510" y="1675" as="targetPoint" />
            <Array as="points">
              <mxPoint x="320" y="1473" />
              <mxPoint x="320" y="1675" />
            </Array>
          </mxGeometry>
        </mxCell>
        <mxCell id="TpV7K2aXvLtTDawVXRad-37" value="" style="rounded=0;whiteSpace=wrap;html=1;align=center;verticalAlign=middle;fontFamily=Helvetica;fontSize=12;fontColor=default;fillColor=none;gradientColor=none;strokeWidth=5;perimeterSpacing=0;strokeColor=default;dashed=1;" parent="1" vertex="1">
          <mxGeometry x="970" y="1754" width="1070" height="120" as="geometry" />
        </mxCell>
        <mxCell id="TpV7K2aXvLtTDawVXRad-38" value="" style="rounded=0;whiteSpace=wrap;html=1;align=center;verticalAlign=middle;fontFamily=Helvetica;fontSize=12;fontColor=default;fillColor=none;gradientColor=none;strokeWidth=5;perimeterSpacing=0;strokeColor=default;dashed=1;" parent="1" vertex="1">
          <mxGeometry x="980" y="1420" width="1070" height="120" as="geometry" />
        </mxCell>
        <mxCell id="TpV7K2aXvLtTDawVXRad-39" value="" style="endArrow=classic;startArrow=classic;html=1;rounded=1;fontFamily=Helvetica;fontSize=12;fontColor=default;strokeWidth=10;entryX=0;entryY=0.5;entryDx=0;entryDy=0;" parent="1" source="TpV7K2aXvLtTDawVXRad-35" target="TpV7K2aXvLtTDawVXRad-37" edge="1">
          <mxGeometry width="50" height="50" relative="1" as="geometry">
            <mxPoint x="573.2600906495456" y="1670.3594400000002" as="sourcePoint" />
            <mxPoint x="851.22" y="1668.33" as="targetPoint" />
            <Array as="points">
              <mxPoint x="900" y="1660" />
              <mxPoint x="900" y="1814" />
            </Array>
          </mxGeometry>
        </mxCell>
        <mxCell id="TpV7K2aXvLtTDawVXRad-40" value="&lt;span style=&quot;font-size: 44px;&quot;&gt;&lt;b&gt;ALB Ingress&lt;/b&gt;&lt;/span&gt;" style="text;html=1;align=center;verticalAlign=middle;whiteSpace=wrap;rounded=0;fontFamily=Helvetica;fontSize=12;fontColor=default;" parent="1" vertex="1">
          <mxGeometry x="605" y="1790" width="200" height="70" as="geometry" />
        </mxCell>
        <mxCell id="TpV7K2aXvLtTDawVXRad-41" value="" style="sketch=0;outlineConnect=0;fontColor=#232F3E;gradientColor=none;fillColor=#ED7100;strokeColor=none;dashed=0;verticalLabelPosition=bottom;verticalAlign=top;align=center;html=1;fontSize=12;fontStyle=0;aspect=fixed;pointerEvents=1;shape=mxgraph.aws4.instance2;rounded=0;fontFamily=Helvetica;" parent="1" vertex="1">
          <mxGeometry x="1040" y="1768" width="70" height="70" as="geometry" />
        </mxCell>
        <mxCell id="TpV7K2aXvLtTDawVXRad-42" value="&lt;b style=&quot;&quot;&gt;&lt;font style=&quot;font-size: 25px;&quot;&gt;Worker Node&lt;/font&gt;&lt;/b&gt;" style="text;html=1;align=center;verticalAlign=middle;whiteSpace=wrap;rounded=0;fontFamily=Helvetica;fontSize=12;fontColor=default;" parent="1" vertex="1">
          <mxGeometry x="990" y="1834" width="170" height="40" as="geometry" />
        </mxCell>
        <mxCell id="TpV7K2aXvLtTDawVXRad-43" value="" style="sketch=0;outlineConnect=0;fontColor=#232F3E;gradientColor=none;fillColor=#ED7100;strokeColor=none;dashed=0;verticalLabelPosition=bottom;verticalAlign=top;align=center;html=1;fontSize=12;fontStyle=0;aspect=fixed;pointerEvents=1;shape=mxgraph.aws4.instance2;rounded=0;fontFamily=Helvetica;" parent="1" vertex="1">
          <mxGeometry x="1230" y="1764" width="70" height="70" as="geometry" />
        </mxCell>
        <mxCell id="TpV7K2aXvLtTDawVXRad-44" value="&lt;b style=&quot;&quot;&gt;&lt;font style=&quot;font-size: 25px;&quot;&gt;Worker Node&lt;/font&gt;&lt;/b&gt;" style="text;html=1;align=center;verticalAlign=middle;whiteSpace=wrap;rounded=0;fontFamily=Helvetica;fontSize=12;fontColor=default;" parent="1" vertex="1">
          <mxGeometry x="1180" y="1829" width="170" height="50" as="geometry" />
        </mxCell>
        <mxCell id="TpV7K2aXvLtTDawVXRad-35" value="" style="sketch=0;outlineConnect=0;fontColor=#ffffff;fillColor=#6a00ff;strokeColor=#3700CC;dashed=0;verticalLabelPosition=bottom;verticalAlign=top;align=center;html=1;fontSize=12;fontStyle=0;aspect=fixed;shape=mxgraph.aws4.agent2;rounded=0;fontFamily=Helvetica;" parent="1" vertex="1">
          <mxGeometry x="630" y="1595" width="150" height="150" as="geometry" />
        </mxCell>
        <mxCell id="TpV7K2aXvLtTDawVXRad-48" value="" style="sketch=0;outlineConnect=0;fontColor=#232F3E;gradientColor=none;fillColor=#ED7100;strokeColor=none;dashed=0;verticalLabelPosition=bottom;verticalAlign=top;align=center;html=1;fontSize=12;fontStyle=0;aspect=fixed;pointerEvents=1;shape=mxgraph.aws4.instance2;rounded=0;fontFamily=Helvetica;" parent="1" vertex="1">
          <mxGeometry x="1040" y="1430" width="70" height="70" as="geometry" />
        </mxCell>
        <mxCell id="TpV7K2aXvLtTDawVXRad-49" value="&lt;span style=&quot;font-size: 25px;&quot;&gt;&lt;b&gt;Control Plane&lt;/b&gt;&lt;/span&gt;" style="text;html=1;align=center;verticalAlign=middle;whiteSpace=wrap;rounded=0;fontFamily=Helvetica;fontSize=12;fontColor=default;" parent="1" vertex="1">
          <mxGeometry x="990" y="1500" width="170" height="40" as="geometry" />
        </mxCell>
        <mxCell id="TpV7K2aXvLtTDawVXRad-50" value="" style="sketch=0;outlineConnect=0;fontColor=#232F3E;gradientColor=none;fillColor=#ED7100;strokeColor=none;dashed=0;verticalLabelPosition=bottom;verticalAlign=top;align=center;html=1;fontSize=12;fontStyle=0;aspect=fixed;pointerEvents=1;shape=mxgraph.aws4.instance2;rounded=0;fontFamily=Helvetica;" parent="1" vertex="1">
          <mxGeometry x="1910" y="1430" width="70" height="70" as="geometry" />
        </mxCell>
        <mxCell id="TpV7K2aXvLtTDawVXRad-51" value="&lt;span style=&quot;font-size: 25px;&quot;&gt;&lt;b&gt;Control Plane&lt;/b&gt;&lt;/span&gt;" style="text;html=1;align=center;verticalAlign=middle;whiteSpace=wrap;rounded=0;fontFamily=Helvetica;fontSize=12;fontColor=default;" parent="1" vertex="1">
          <mxGeometry x="1860" y="1500" width="170" height="40" as="geometry" />
        </mxCell>
        <mxCell id="TpV7K2aXvLtTDawVXRad-52" value="" style="sketch=0;outlineConnect=0;fontColor=#232F3E;gradientColor=none;fillColor=#ED7100;strokeColor=none;dashed=0;verticalLabelPosition=bottom;verticalAlign=top;align=center;html=1;fontSize=12;fontStyle=0;aspect=fixed;pointerEvents=1;shape=mxgraph.aws4.instance2;rounded=0;fontFamily=Helvetica;" parent="1" vertex="1">
          <mxGeometry x="1910" y="1766" width="70" height="70" as="geometry" />
        </mxCell>
        <mxCell id="TpV7K2aXvLtTDawVXRad-53" value="&lt;b style=&quot;&quot;&gt;&lt;font style=&quot;font-size: 25px;&quot;&gt;Worker Node&lt;/font&gt;&lt;/b&gt;" style="text;html=1;align=center;verticalAlign=middle;whiteSpace=wrap;rounded=0;fontFamily=Helvetica;fontSize=12;fontColor=default;" parent="1" vertex="1">
          <mxGeometry x="1860" y="1829" width="170" height="40" as="geometry" />
        </mxCell>
        <mxCell id="TpV7K2aXvLtTDawVXRad-54" value="" style="sketch=0;outlineConnect=0;fontColor=#232F3E;gradientColor=none;fillColor=#ED7100;strokeColor=none;dashed=0;verticalLabelPosition=bottom;verticalAlign=top;align=center;html=1;fontSize=12;fontStyle=0;aspect=fixed;pointerEvents=1;shape=mxgraph.aws4.instance2;rounded=0;fontFamily=Helvetica;" parent="1" vertex="1">
          <mxGeometry x="1720" y="1767" width="70" height="70" as="geometry" />
        </mxCell>
        <mxCell id="TpV7K2aXvLtTDawVXRad-55" value="&lt;b style=&quot;&quot;&gt;&lt;font style=&quot;font-size: 25px;&quot;&gt;Worker Node&lt;/font&gt;&lt;/b&gt;" style="text;html=1;align=center;verticalAlign=middle;whiteSpace=wrap;rounded=0;fontFamily=Helvetica;fontSize=12;fontColor=default;" parent="1" vertex="1">
          <mxGeometry x="1670" y="1829" width="170" height="50" as="geometry" />
        </mxCell>
        <mxCell id="TpV7K2aXvLtTDawVXRad-56" value="" style="sketch=0;points=[[0,0,0],[0.25,0,0],[0.5,0,0],[0.75,0,0],[1,0,0],[0,1,0],[0.25,1,0],[0.5,1,0],[0.75,1,0],[1,1,0],[0,0.25,0],[0,0.5,0],[0,0.75,0],[1,0.25,0],[1,0.5,0],[1,0.75,0]];outlineConnect=0;fontColor=#232F3E;fillColor=#C925D1;strokeColor=#ffffff;dashed=0;verticalLabelPosition=bottom;verticalAlign=top;align=center;html=1;fontSize=12;fontStyle=0;aspect=fixed;shape=mxgraph.aws4.resourceIcon;resIcon=mxgraph.aws4.neptune;rounded=0;fontFamily=Helvetica;" parent="1" vertex="1">
          <mxGeometry x="980" y="1570" width="100" height="100" as="geometry" />
        </mxCell>
        <mxCell id="TpV7K2aXvLtTDawVXRad-57" value="" style="sketch=0;points=[[0,0,0],[0.25,0,0],[0.5,0,0],[0.75,0,0],[1,0,0],[0,1,0],[0.25,1,0],[0.5,1,0],[0.75,1,0],[1,1,0],[0,0.25,0],[0,0.5,0],[0,0.75,0],[1,0.25,0],[1,0.5,0],[1,0.75,0]];outlineConnect=0;fillColor=#FF3333;strokeColor=#006EAF;dashed=0;verticalLabelPosition=bottom;verticalAlign=top;align=center;html=1;fontSize=12;fontStyle=0;aspect=fixed;shape=mxgraph.aws4.resourceIcon;resIcon=mxgraph.aws4.elasticache;rounded=0;fontFamily=Helvetica;fontColor=#ffffff;" parent="1" vertex="1">
          <mxGeometry x="1180" y="1570" width="100" height="100" as="geometry" />
        </mxCell>
        <mxCell id="TpV7K2aXvLtTDawVXRad-58" value="&lt;span style=&quot;font-size: 25px;&quot;&gt;&lt;b&gt;RDS DB&lt;/b&gt;&lt;/span&gt;" style="text;html=1;align=center;verticalAlign=middle;whiteSpace=wrap;rounded=0;fontFamily=Helvetica;fontSize=12;fontColor=default;" parent="1" vertex="1">
          <mxGeometry x="1145" y="1680" width="170" height="40" as="geometry" />
        </mxCell>
        <mxCell id="TpV7K2aXvLtTDawVXRad-60" value="&lt;span style=&quot;font-size: 25px;&quot;&gt;&lt;b&gt;Elasticcache&lt;/b&gt;&lt;/span&gt;" style="text;html=1;align=center;verticalAlign=middle;whiteSpace=wrap;rounded=0;fontFamily=Helvetica;fontSize=12;fontColor=default;" parent="1" vertex="1">
          <mxGeometry x="945" y="1680" width="170" height="40" as="geometry" />
        </mxCell>
        <mxCell id="TpV7K2aXvLtTDawVXRad-62" value="" style="shape=mxgraph.networks2.icon;aspect=fixed;fillColor=#000066;strokeColor=#6c8ebf;network2IconShadow=1;network2bgFillColor=none;network2Icon=mxgraph.networks2.lock;network2IconW=0.8;network2IconH=0.9999;rounded=0;align=center;verticalAlign=middle;fontFamily=Helvetica;fontSize=12;gradientColor=none;" parent="1" vertex="1">
          <mxGeometry x="870" y="1361.26" width="70" height="87.49" as="geometry" />
        </mxCell>
        <mxCell id="TpV7K2aXvLtTDawVXRad-63" value="&lt;font style=&quot;font-size: 30px; color: rgb(0, 0, 102);&quot;&gt;Private subnet&lt;/font&gt;" style="text;html=1;align=center;verticalAlign=middle;whiteSpace=wrap;rounded=0;fontFamily=Helvetica;fontSize=12;fontColor=default;" parent="1" vertex="1">
          <mxGeometry x="945" y="1370" width="240" height="40" as="geometry" />
        </mxCell>
        <mxCell id="TpV7K2aXvLtTDawVXRad-65" value="" style="sketch=0;aspect=fixed;pointerEvents=1;shadow=0;dashed=0;html=1;strokeColor=none;labelPosition=center;verticalLabelPosition=bottom;verticalAlign=top;align=center;fillColor=#00188D;shape=mxgraph.mscae.enterprise.protocol_stack;rounded=0;fontFamily=Helvetica;fontSize=12;fontColor=default;" parent="1" vertex="1">
          <mxGeometry x="1290" y="1361.26" width="71.68" height="48.74" as="geometry" />
        </mxCell>
        <mxCell id="TpV7K2aXvLtTDawVXRad-66" value="&lt;font color=&quot;#000066&quot;&gt;&lt;span style=&quot;font-size: 30px;&quot;&gt;&lt;b&gt;Private RT&lt;/b&gt;&lt;/span&gt;&lt;/font&gt;" style="text;html=1;align=center;verticalAlign=middle;whiteSpace=wrap;rounded=0;fontFamily=Helvetica;fontSize=12;fontColor=default;" parent="1" vertex="1">
          <mxGeometry x="1230" y="1310" width="180" height="40" as="geometry" />
        </mxCell>
        <mxCell id="TpV7K2aXvLtTDawVXRad-68" value="" style="sketch=0;aspect=fixed;pointerEvents=1;shadow=0;dashed=0;html=1;strokeColor=none;labelPosition=center;verticalLabelPosition=bottom;verticalAlign=top;align=center;fillColor=#00188D;shape=mxgraph.mscae.enterprise.protocol_stack;rounded=0;fontFamily=Helvetica;fontSize=12;fontColor=default;" parent="1" vertex="1">
          <mxGeometry x="878.3199999999999" y="1220" width="71.68" height="48.74" as="geometry" />
        </mxCell>
        <mxCell id="TpV7K2aXvLtTDawVXRad-69" value="" style="sketch=0;aspect=fixed;pointerEvents=1;shadow=0;dashed=0;html=1;strokeColor=none;labelPosition=center;verticalLabelPosition=bottom;verticalAlign=top;align=center;fillColor=#00188D;shape=mxgraph.mscae.enterprise.protocol_stack;rounded=0;fontFamily=Helvetica;fontSize=12;fontColor=default;" parent="1" vertex="1">
          <mxGeometry x="2088.3199999999997" y="1220" width="71.68" height="48.74" as="geometry" />
        </mxCell>
        <mxCell id="TpV7K2aXvLtTDawVXRad-70" value="&lt;font color=&quot;#000066&quot;&gt;&lt;span style=&quot;font-size: 30px;&quot;&gt;&lt;b&gt;Public RT&lt;/b&gt;&lt;/span&gt;&lt;/font&gt;" style="text;html=1;align=center;verticalAlign=middle;whiteSpace=wrap;rounded=0;fontFamily=Helvetica;fontSize=12;fontColor=default;" parent="1" vertex="1">
          <mxGeometry x="830" y="1290" width="180" height="40" as="geometry" />
        </mxCell>
        <mxCell id="TpV7K2aXvLtTDawVXRad-71" value="&lt;font color=&quot;#000066&quot;&gt;&lt;span style=&quot;font-size: 30px;&quot;&gt;&lt;b&gt;Public RT&lt;/b&gt;&lt;/span&gt;&lt;/font&gt;" style="text;html=1;align=center;verticalAlign=middle;whiteSpace=wrap;rounded=0;fontFamily=Helvetica;fontSize=12;fontColor=default;" parent="1" vertex="1">
          <mxGeometry x="2034.16" y="1290" width="180" height="40" as="geometry" />
        </mxCell>
        <mxCell id="TpV7K2aXvLtTDawVXRad-72" value="" style="shape=mxgraph.networks2.icon;aspect=fixed;fillColor=#000066;strokeColor=#6c8ebf;network2IconShadow=1;network2bgFillColor=none;network2Icon=mxgraph.networks2.lock;network2IconW=0.8;network2IconH=0.9999;rounded=0;align=center;verticalAlign=middle;fontFamily=Helvetica;fontSize=12;gradientColor=none;" parent="1" vertex="1">
          <mxGeometry x="1670" y="1361.26" width="70" height="87.49" as="geometry" />
        </mxCell>
        <mxCell id="TpV7K2aXvLtTDawVXRad-73" value="" style="sketch=0;aspect=fixed;pointerEvents=1;shadow=0;dashed=0;html=1;strokeColor=none;labelPosition=center;verticalLabelPosition=bottom;verticalAlign=top;align=center;fillColor=#00188D;shape=mxgraph.mscae.enterprise.protocol_stack;rounded=0;fontFamily=Helvetica;fontSize=12;fontColor=default;" parent="1" vertex="1">
          <mxGeometry x="2080" y="1860" width="71.68" height="48.74" as="geometry" />
        </mxCell>
        <mxCell id="TpV7K2aXvLtTDawVXRad-74" value="&lt;font color=&quot;#000066&quot;&gt;&lt;span style=&quot;font-size: 30px;&quot;&gt;&lt;b&gt;Private RT&lt;/b&gt;&lt;/span&gt;&lt;/font&gt;" style="text;html=1;align=center;verticalAlign=middle;whiteSpace=wrap;rounded=0;fontFamily=Helvetica;fontSize=12;fontColor=default;" parent="1" vertex="1">
          <mxGeometry x="2025.8400000000001" y="1930" width="180" height="40" as="geometry" />
        </mxCell>
        <mxCell id="TpV7K2aXvLtTDawVXRad-75" value="" style="shape=mxgraph.networks2.icon;aspect=fixed;fillColor=#008a00;strokeColor=#005700;network2IconShadow=1;network2bgFillColor=none;network2Icon=mxgraph.networks2.lock;network2IconW=0.8;network2IconH=0.9999;rounded=0;align=center;verticalAlign=middle;fontFamily=Helvetica;fontSize=12;fontColor=#ffffff;" parent="1" vertex="1">
          <mxGeometry x="875" y="720" width="70" height="87.49" as="geometry" />
        </mxCell>
        <mxCell id="TpV7K2aXvLtTDawVXRad-76" value="" style="shape=mxgraph.networks2.icon;aspect=fixed;fillColor=#008a00;strokeColor=#005700;network2IconShadow=1;network2bgFillColor=none;network2Icon=mxgraph.networks2.lock;network2IconW=0.8;network2IconH=0.9999;rounded=0;align=center;verticalAlign=middle;fontFamily=Helvetica;fontSize=12;fontColor=#ffffff;" parent="1" vertex="1">
          <mxGeometry x="1670" y="720" width="70" height="87.49" as="geometry" />
        </mxCell>
        <mxCell id="TpV7K2aXvLtTDawVXRad-77" value="&lt;font style=&quot;font-size: 30px; color: rgb(0, 102, 0);&quot;&gt;Public subnet&lt;/font&gt;" style="text;html=1;align=center;verticalAlign=middle;whiteSpace=wrap;rounded=0;fontFamily=Helvetica;fontSize=12;fontColor=default;" parent="1" vertex="1">
          <mxGeometry x="945" y="743.74" width="240" height="40" as="geometry" />
        </mxCell>
        <mxCell id="TpV7K2aXvLtTDawVXRad-78" value="&lt;font style=&quot;font-size: 30px; color: rgb(0, 102, 0);&quot;&gt;Public subnet&lt;/font&gt;" style="text;html=1;align=center;verticalAlign=middle;whiteSpace=wrap;rounded=0;fontFamily=Helvetica;fontSize=12;fontColor=default;" parent="1" vertex="1">
          <mxGeometry x="1740" y="743.74" width="240" height="40" as="geometry" />
        </mxCell>
        <mxCell id="TpV7K2aXvLtTDawVXRad-79" value="&lt;font style=&quot;font-size: 30px; color: rgb(0, 0, 102);&quot;&gt;Private subnet&lt;/font&gt;" style="text;html=1;align=center;verticalAlign=middle;whiteSpace=wrap;rounded=0;fontFamily=Helvetica;fontSize=12;fontColor=default;" parent="1" vertex="1">
          <mxGeometry x="1750" y="1370" width="240" height="40" as="geometry" />
        </mxCell>
        <mxCell id="TpV7K2aXvLtTDawVXRad-80" value="" style="sketch=0;pointerEvents=1;shadow=0;dashed=0;html=1;strokeColor=none;labelPosition=center;verticalLabelPosition=bottom;verticalAlign=top;align=center;fillColor=#505050;shape=mxgraph.mscae.oms.dependency_monitor;rounded=0;fontFamily=Helvetica;fontSize=12;fontColor=default;" parent="1" vertex="1">
          <mxGeometry x="1080" y="950" width="100" height="100" as="geometry" />
        </mxCell>
        <mxCell id="TpV7K2aXvLtTDawVXRad-81" value="&lt;h5&gt;&lt;font style=&quot;font-size: 35px; color: rgb(0, 0, 0);&quot;&gt;&lt;b style=&quot;&quot;&gt;NAT Gateway&lt;/b&gt;&lt;/font&gt;&lt;/h5&gt;" style="text;html=1;align=center;verticalAlign=middle;whiteSpace=wrap;rounded=0;fontFamily=Helvetica;fontSize=12;fontColor=default;" parent="1" vertex="1">
          <mxGeometry x="985" y="1070" width="290" height="40" as="geometry" />
        </mxCell>
        <mxCell id="TpV7K2aXvLtTDawVXRad-83" value="" style="sketch=0;pointerEvents=1;shadow=0;dashed=0;html=1;strokeColor=none;labelPosition=center;verticalLabelPosition=bottom;verticalAlign=top;align=center;fillColor=#505050;shape=mxgraph.mscae.oms.dependency_monitor;rounded=0;fontFamily=Helvetica;fontSize=12;fontColor=default;" parent="1" vertex="1">
          <mxGeometry x="1860" y="940" width="100" height="100" as="geometry" />
        </mxCell>
        <mxCell id="TpV7K2aXvLtTDawVXRad-84" value="&lt;h5&gt;&lt;font style=&quot;font-size: 35px; color: rgb(0, 0, 0);&quot;&gt;&lt;b style=&quot;&quot;&gt;NAT Gateway&lt;/b&gt;&lt;/font&gt;&lt;/h5&gt;" style="text;html=1;align=center;verticalAlign=middle;whiteSpace=wrap;rounded=0;fontFamily=Helvetica;fontSize=12;fontColor=default;" parent="1" vertex="1">
          <mxGeometry x="1767.9199999999998" y="1070" width="284.16" height="40" as="geometry" />
        </mxCell>
        <mxCell id="TpV7K2aXvLtTDawVXRad-85" value="&lt;font style=&quot;color: rgb(0, 51, 102); font-size: 35px;&quot;&gt;Availability Zone&lt;/font&gt;" style="text;html=1;align=center;verticalAlign=middle;whiteSpace=wrap;rounded=0;fontFamily=Helvetica;fontSize=12;fontColor=default;" parent="1" vertex="1">
          <mxGeometry x="985" y="670" width="270" height="40" as="geometry" />
        </mxCell>
        <mxCell id="TpV7K2aXvLtTDawVXRad-86" value="&lt;font style=&quot;color: rgb(0, 51, 102); font-size: 35px;&quot;&gt;Availability Zone&lt;/font&gt;" style="text;html=1;align=center;verticalAlign=middle;whiteSpace=wrap;rounded=0;fontFamily=Helvetica;fontSize=12;fontColor=default;" parent="1" vertex="1">
          <mxGeometry x="1775" y="670" width="270" height="40" as="geometry" />
        </mxCell>
        <mxCell id="TpV7K2aXvLtTDawVXRad-87" value="" style="sketch=0;points=[[0,0,0],[0.25,0,0],[0.5,0,0],[0.75,0,0],[1,0,0],[0,1,0],[0.25,1,0],[0.5,1,0],[0.75,1,0],[1,1,0],[0,0.25,0],[0,0.5,0],[0,0.75,0],[1,0.25,0],[1,0.5,0],[1,0.75,0]];outlineConnect=0;fontColor=#232F3E;fillColor=#8C4FFF;strokeColor=#ffffff;dashed=0;verticalLabelPosition=bottom;verticalAlign=top;align=center;html=1;fontSize=12;fontStyle=0;aspect=fixed;shape=mxgraph.aws4.resourceIcon;resIcon=mxgraph.aws4.verified_access;rounded=0;fontFamily=Helvetica;" parent="1" vertex="1">
          <mxGeometry x="2730" y="1516" width="250" height="250" as="geometry" />
        </mxCell>
        <mxCell id="TpV7K2aXvLtTDawVXRad-89" value="" style="sketch=0;points=[[0,0,0],[0.25,0,0],[0.5,0,0],[0.75,0,0],[1,0,0],[0,1,0],[0.25,1,0],[0.5,1,0],[0.75,1,0],[1,1,0],[0,0.25,0],[0,0.5,0],[0,0.75,0],[1,0.25,0],[1,0.5,0],[1,0.75,0]];outlineConnect=0;fontColor=#232F3E;fillColor=#DD344C;strokeColor=#ffffff;dashed=0;verticalLabelPosition=bottom;verticalAlign=top;align=center;html=1;fontSize=12;fontStyle=0;aspect=fixed;shape=mxgraph.aws4.resourceIcon;resIcon=mxgraph.aws4.certificate_manager_3;rounded=0;fontFamily=Helvetica;" parent="1" vertex="1">
          <mxGeometry x="2730" y="1112" width="250" height="250" as="geometry" />
        </mxCell>
        <mxCell id="TpV7K2aXvLtTDawVXRad-90" value="&lt;h5&gt;&lt;font style=&quot;font-size: 40px;&quot;&gt;ACM&lt;/font&gt;&lt;/h5&gt;" style="text;html=1;align=center;verticalAlign=middle;whiteSpace=wrap;rounded=0;fontFamily=Helvetica;fontSize=12;fontColor=default;" parent="1" vertex="1">
          <mxGeometry x="2710" y="1385.01" width="290" height="40" as="geometry" />
        </mxCell>
        <mxCell id="TpV7K2aXvLtTDawVXRad-91" value="&lt;h5&gt;&lt;font style=&quot;font-size: 40px;&quot;&gt;IAM&lt;/font&gt;&lt;/h5&gt;" style="text;html=1;align=center;verticalAlign=middle;whiteSpace=wrap;rounded=0;fontFamily=Helvetica;fontSize=12;fontColor=default;" parent="1" vertex="1">
          <mxGeometry x="2710" y="1779" width="290" height="70" as="geometry" />
        </mxCell>
      </root>
    </mxGraphModel>
  </diagram>
</mxfile>
